<svg xmlns="http://www.w3.org/2000/svg" width="903" height="875" viewBox="0 0 903 875">
<path d="M 787 742 L 791 750 L 789 753 L 789 761 L 791 762 L 791 766 L 789 767 L 791 777 L 789 779 L 791 783 L 786 785 L 803 784 L 798 783 L 797 756 L 798 743 L 803 742 Z" fill="#030549" fill-rule="evenodd"/>
<path d="M 654 742 L 658 744 L 660 751 L 660 775 L 657 784 L 660 786 L 666 785 L 662 782 L 663 758 L 661 757 L 662 753 L 666 753 L 666 757 L 670 759 L 689 785 L 694 786 L 694 747 L 696 746 L 695 743 L 699 742 L 686 742 L 692 747 L 692 768 L 690 771 L 686 769 L 685 764 L 681 763 L 666 742 Z" fill="#030549" fill-rule="evenodd"/>
<path d="M 566 742 L 570 747 L 570 781 L 566 785 L 573 786 L 579 784 L 576 777 L 576 768 L 579 764 L 598 764 L 600 766 L 600 781 L 597 785 L 610 785 L 607 783 L 607 746 L 610 742 L 595 742 L 600 745 L 600 760 L 598 763 L 580 763 L 576 759 L 576 748 L 579 742 Z" fill="#030549" fill-rule="evenodd"/>
<path d="M 485 742 L 482 754 L 479 755 L 478 766 L 472 775 L 472 782 L 468 783 L 468 785 L 477 785 L 476 776 L 479 772 L 496 772 L 499 779 L 498 784 L 508 786 L 509 783 L 504 774 L 505 770 L 501 766 L 500 756 L 496 752 L 493 742 Z M 486 750 L 490 752 L 494 764 L 492 771 L 482 771 L 480 768 L 483 753 Z" fill="#030549" fill-rule="evenodd"/>
<path d="M 426 742 L 432 751 L 432 760 L 428 770 L 431 762 L 435 761 L 444 785 L 449 786 L 456 765 L 459 764 L 459 759 L 456 761 L 454 770 L 451 772 L 452 775 L 448 776 L 441 758 L 442 754 L 438 749 L 438 744 L 441 742 Z" fill="#030549" fill-rule="evenodd"/>
<path d="M 402 742 L 417 785 L 423 785 L 424 780 L 427 779 L 427 772 L 424 779 L 419 777 L 419 768 L 416 766 L 414 759 L 415 754 L 411 748 L 414 742 Z" fill="#030549" fill-rule="evenodd"/>
<path d="M 101 742 L 106 744 L 107 777 L 103 785 L 135 784 L 136 778 L 131 784 L 116 784 L 114 782 L 114 766 L 120 763 L 124 763 L 125 766 L 128 766 L 128 760 L 125 763 L 117 763 L 114 760 L 113 748 L 115 743 L 123 742 Z" fill="#030549" fill-rule="evenodd"/>
<path d="M 4 742 L 8 744 L 9 780 L 5 785 L 21 785 L 16 782 L 16 770 L 25 767 L 29 769 L 38 762 L 42 753 L 39 751 L 37 745 L 31 742 Z M 20 742 L 30 745 L 33 751 L 31 762 L 24 767 L 17 765 L 15 760 L 15 745 Z" fill="#030549" fill-rule="evenodd"/>
<path d="M 828 742 L 832 747 L 832 782 L 829 785 L 858 785 L 860 781 L 858 780 L 858 776 L 852 784 L 842 784 L 839 781 L 839 745 L 844 742 Z" fill="#030549" fill-rule="evenodd"/>
<path d="M 636 741 L 626 742 L 630 747 L 630 778 L 628 780 L 629 783 L 625 785 L 642 785 L 637 782 L 637 745 L 639 742 Z" fill="#030549" fill-rule="evenodd"/>
<path d="M 370 742 L 339 742 L 342 748 L 342 779 L 338 785 L 356 784 L 349 782 L 349 766 L 357 765 L 358 763 L 364 766 L 364 760 L 361 763 L 350 762 L 349 744 L 352 742 L 361 742 L 367 744 L 370 749 Z" fill="#030549" fill-rule="evenodd"/>
<path d="M 230 742 L 232 742 L 235 747 L 235 773 L 237 780 L 246 786 L 263 786 L 265 781 L 268 782 L 268 770 L 266 778 L 258 784 L 245 781 L 242 775 L 242 746 L 244 742 Z" fill="#030549" fill-rule="evenodd"/>
<path d="M 546 740 L 545 742 L 531 742 L 525 746 L 521 752 L 526 764 L 530 763 L 533 766 L 539 767 L 546 773 L 546 780 L 538 785 L 532 784 L 531 782 L 528 783 L 526 777 L 523 776 L 521 783 L 530 785 L 532 788 L 534 786 L 544 787 L 554 776 L 552 775 L 552 771 L 554 770 L 548 764 L 533 758 L 528 751 L 533 743 L 538 744 L 539 742 L 543 743 L 549 750 L 549 741 Z" fill="#030549" fill-rule="evenodd"/>
<path d="M 312 740 L 311 742 L 287 742 L 291 746 L 291 781 L 287 785 L 301 785 L 297 780 L 297 767 L 300 765 L 304 765 L 308 768 L 315 783 L 325 785 L 319 778 L 317 770 L 313 767 L 313 764 L 321 757 L 322 751 L 320 746 Z M 299 742 L 304 742 L 305 744 L 308 742 L 314 748 L 314 758 L 307 764 L 301 764 L 297 760 L 297 744 Z" fill="#030549" fill-rule="evenodd"/>
<path d="M 76 740 L 75 742 L 50 742 L 52 742 L 55 747 L 55 780 L 52 785 L 65 785 L 62 783 L 61 769 L 66 765 L 70 766 L 80 785 L 90 785 L 83 779 L 76 766 L 78 762 L 85 761 L 86 755 L 85 748 Z M 64 742 L 76 744 L 79 750 L 78 758 L 71 764 L 64 764 L 61 760 L 61 746 Z" fill="#030549" fill-rule="evenodd"/>
<path d="M 889 739 L 881 742 L 875 741 L 875 743 L 868 746 L 868 750 L 864 752 L 864 770 L 866 776 L 874 784 L 886 786 L 887 788 L 889 784 L 893 785 L 899 780 L 892 784 L 879 782 L 874 777 L 874 771 L 872 770 L 873 765 L 871 764 L 873 761 L 871 758 L 874 748 L 881 743 L 891 743 L 894 748 L 897 749 L 896 752 L 898 753 L 898 743 L 892 742 Z" fill="#030549" fill-rule="evenodd"/>
<path d="M 736 739 L 735 741 L 730 739 L 723 743 L 719 742 L 709 754 L 710 761 L 708 770 L 713 776 L 712 779 L 715 779 L 717 784 L 732 787 L 746 782 L 746 772 L 750 766 L 737 766 L 740 770 L 739 784 L 728 784 L 724 782 L 717 770 L 717 766 L 719 765 L 717 764 L 719 760 L 717 759 L 718 752 L 724 745 L 727 745 L 728 742 L 731 744 L 739 743 L 746 752 L 748 752 L 746 751 L 745 743 L 742 740 L 737 741 Z" fill="#030549" fill-rule="evenodd"/>
<path d="M 202 739 L 191 747 L 189 759 L 200 766 L 208 768 L 210 772 L 213 773 L 213 780 L 208 784 L 197 784 L 192 778 L 190 779 L 192 784 L 204 787 L 212 785 L 221 776 L 219 775 L 218 767 L 214 763 L 209 762 L 208 759 L 205 758 L 201 759 L 199 755 L 195 753 L 195 749 L 200 743 L 205 744 L 208 742 L 217 748 L 213 740 L 203 741 Z" fill="#030549" fill-rule="evenodd"/>
<path d="M 167 739 L 166 741 L 159 741 L 149 746 L 150 749 L 147 752 L 152 764 L 165 767 L 173 774 L 171 782 L 167 782 L 166 784 L 156 784 L 149 779 L 149 776 L 150 784 L 156 785 L 158 788 L 159 786 L 165 786 L 166 788 L 169 785 L 176 784 L 179 776 L 178 765 L 174 765 L 170 760 L 160 759 L 155 754 L 155 747 L 158 746 L 159 743 L 169 743 L 170 746 L 175 747 L 175 743 Z" fill="#030549" fill-rule="evenodd"/>
<path d="M 620 598 L 620 602 L 624 603 L 629 609 L 630 688 L 628 694 L 619 701 L 700 702 L 703 698 L 701 694 L 703 684 L 705 683 L 703 679 L 699 678 L 691 690 L 682 694 L 653 695 L 651 692 L 651 655 L 653 653 L 675 654 L 680 658 L 681 663 L 685 663 L 685 637 L 681 637 L 680 641 L 674 646 L 654 647 L 651 645 L 651 607 L 680 606 L 689 611 L 694 620 L 701 617 L 699 616 L 698 600 L 696 598 Z" fill="#030549" fill-rule="evenodd"/>
<path d="M 364 598 L 364 602 L 370 604 L 373 609 L 373 692 L 368 698 L 362 699 L 362 701 L 444 702 L 447 679 L 442 679 L 440 684 L 433 691 L 428 691 L 426 694 L 398 695 L 395 692 L 395 655 L 397 653 L 415 653 L 416 655 L 422 656 L 425 663 L 429 663 L 430 636 L 426 636 L 425 640 L 418 646 L 397 646 L 395 644 L 395 609 L 397 606 L 421 606 L 422 608 L 429 608 L 436 615 L 438 620 L 442 619 L 442 614 L 444 613 L 442 612 L 441 598 Z" fill="#030549" fill-rule="evenodd"/>
<path d="M 164 598 L 164 601 L 171 606 L 171 614 L 160 648 L 156 652 L 155 662 L 145 690 L 135 699 L 135 702 L 164 702 L 164 699 L 156 692 L 157 685 L 160 683 L 160 676 L 163 673 L 198 673 L 205 687 L 204 696 L 197 699 L 198 702 L 236 702 L 238 699 L 231 696 L 227 687 L 227 680 L 223 677 L 214 651 L 215 647 L 211 643 L 195 598 Z M 179 619 L 183 620 L 196 659 L 195 663 L 165 662 L 165 660 L 168 659 L 167 655 L 176 626 L 179 624 Z" fill="#030549" fill-rule="evenodd"/>
<path d="M 504 598 L 508 606 L 512 607 L 512 614 L 514 615 L 514 690 L 511 696 L 504 699 L 504 702 L 533 702 L 532 698 L 526 696 L 527 693 L 524 689 L 523 627 L 527 626 L 537 640 L 537 644 L 542 647 L 544 654 L 548 655 L 549 659 L 567 682 L 570 690 L 574 692 L 580 702 L 595 703 L 595 612 L 598 606 L 604 602 L 604 598 L 576 598 L 576 602 L 580 603 L 585 609 L 585 670 L 581 668 L 579 665 L 580 662 L 575 659 L 576 656 L 571 653 L 569 646 L 565 644 L 557 633 L 557 629 L 553 627 L 547 615 L 543 613 L 539 604 L 535 602 L 534 597 Z" fill="#030549" fill-rule="evenodd"/>
<path d="M 872 598 L 870 596 L 868 598 L 844 598 L 844 601 L 851 606 L 852 611 L 836 665 L 833 666 L 834 671 L 831 678 L 826 676 L 815 642 L 816 637 L 813 636 L 807 616 L 807 607 L 812 602 L 816 602 L 815 598 L 770 599 L 771 602 L 780 608 L 785 619 L 786 627 L 784 628 L 785 632 L 781 637 L 782 641 L 778 653 L 775 654 L 776 658 L 772 669 L 769 671 L 770 676 L 766 678 L 761 671 L 750 634 L 751 630 L 748 628 L 744 614 L 744 606 L 746 603 L 751 602 L 751 598 L 711 598 L 711 601 L 716 604 L 723 615 L 732 644 L 731 649 L 734 650 L 743 680 L 742 685 L 745 687 L 747 693 L 746 698 L 749 702 L 770 702 L 777 679 L 780 678 L 780 671 L 790 644 L 795 647 L 802 670 L 801 674 L 804 676 L 805 687 L 808 689 L 811 700 L 813 702 L 834 702 L 843 668 L 846 666 L 845 661 L 856 623 L 860 618 L 859 614 L 863 606 L 872 601 Z" fill="#030549" fill-rule="evenodd"/>
<path d="M 329 604 L 326 605 L 315 600 L 300 598 L 299 596 L 292 596 L 291 598 L 250 598 L 250 602 L 256 605 L 259 613 L 259 687 L 257 688 L 257 695 L 250 698 L 250 702 L 295 703 L 318 701 L 319 698 L 331 693 L 341 684 L 349 668 L 351 656 L 350 642 L 352 641 L 349 638 L 346 622 L 343 621 Z M 282 606 L 304 607 L 305 610 L 311 611 L 319 620 L 324 632 L 326 657 L 323 672 L 315 686 L 300 695 L 283 696 L 281 694 Z" fill="#030549" fill-rule="evenodd"/>
<path d="M 123 598 L 100 598 L 99 596 L 98 598 L 87 598 L 64 666 L 61 666 L 59 663 L 60 659 L 55 652 L 37 598 L 2 598 L 2 602 L 8 605 L 8 609 L 11 611 L 9 619 L 11 620 L 10 693 L 2 699 L 2 702 L 29 702 L 29 699 L 23 696 L 20 690 L 20 619 L 25 622 L 32 645 L 31 648 L 34 650 L 40 667 L 41 677 L 44 679 L 52 702 L 61 702 L 63 694 L 66 693 L 67 683 L 73 666 L 76 664 L 75 660 L 79 649 L 82 647 L 82 641 L 85 639 L 84 635 L 88 623 L 92 620 L 94 628 L 93 690 L 91 691 L 92 695 L 84 699 L 84 702 L 122 702 L 123 699 L 116 696 L 114 692 L 114 609 L 118 604 L 123 602 Z" fill="#030549" fill-rule="evenodd"/>
<path d="M 317 425 L 323 427 L 339 441 L 348 446 L 350 451 L 354 451 L 366 459 L 368 463 L 372 463 L 380 468 L 381 471 L 391 474 L 418 489 L 421 493 L 425 492 L 436 498 L 466 483 L 471 478 L 478 478 L 479 475 L 506 458 L 521 451 L 524 446 L 552 425 L 552 421 L 546 410 L 502 444 L 438 479 L 432 479 L 431 476 L 425 475 L 408 466 L 405 461 L 383 450 L 349 428 L 326 410 L 326 406 L 330 402 L 321 411 Z" fill="#030549" fill-rule="evenodd"/>
<path d="M 636 153 L 627 156 L 625 161 L 621 164 L 621 212 L 619 213 L 621 216 L 621 220 L 619 221 L 621 223 L 621 230 L 619 231 L 621 234 L 621 271 L 618 296 L 613 317 L 602 345 L 587 370 L 581 376 L 581 379 L 585 381 L 589 380 L 596 383 L 613 357 L 616 356 L 616 352 L 621 346 L 620 343 L 627 327 L 633 300 L 636 297 L 634 296 L 636 281 L 638 280 L 636 279 L 636 182 L 638 181 L 638 177 L 636 176 Z" fill="#030549" fill-rule="evenodd"/>
<path d="M 235 151 L 235 221 L 233 222 L 235 223 L 235 240 L 233 241 L 233 250 L 235 251 L 235 261 L 233 262 L 236 284 L 234 288 L 236 289 L 235 295 L 238 299 L 241 315 L 248 334 L 248 340 L 251 342 L 263 365 L 262 368 L 266 370 L 273 385 L 278 381 L 294 377 L 288 373 L 277 357 L 265 332 L 257 307 L 252 271 L 252 167 L 256 166 L 249 163 Z" fill="#030549" fill-rule="evenodd"/>
<path d="M 234 79 L 234 109 L 240 113 L 244 119 L 248 119 L 254 126 L 251 122 L 252 94 L 308 86 L 355 75 L 402 60 L 408 55 L 430 46 L 438 45 L 446 48 L 447 51 L 451 50 L 461 54 L 462 57 L 466 56 L 474 59 L 476 62 L 483 62 L 485 65 L 489 64 L 503 68 L 515 74 L 524 74 L 526 77 L 531 76 L 538 80 L 544 79 L 558 82 L 561 85 L 568 84 L 607 90 L 611 93 L 612 91 L 618 92 L 621 95 L 620 120 L 618 124 L 637 108 L 637 79 L 574 70 L 571 67 L 564 68 L 533 61 L 531 58 L 524 59 L 499 51 L 497 48 L 491 48 L 485 44 L 478 44 L 472 39 L 468 40 L 437 26 L 419 34 L 415 33 L 414 36 L 410 35 L 409 38 L 353 57 L 340 60 L 336 59 L 330 63 L 303 69 L 290 69 L 289 71 L 279 71 L 275 74 L 247 78 L 244 76 L 241 79 Z" fill="#030549" fill-rule="evenodd"/>
<path d="M 785 6 L 775 2 L 748 24 L 745 24 L 743 28 L 740 28 L 737 36 L 724 46 L 724 52 L 720 53 L 718 57 L 715 57 L 714 61 L 710 61 L 710 63 L 706 67 L 701 68 L 701 71 L 675 91 L 672 91 L 671 95 L 591 160 L 588 160 L 586 164 L 583 164 L 579 171 L 573 174 L 563 184 L 557 185 L 554 191 L 534 206 L 531 206 L 529 211 L 486 245 L 477 249 L 468 259 L 457 267 L 454 267 L 450 273 L 436 284 L 432 284 L 428 278 L 425 278 L 405 263 L 402 258 L 390 270 L 393 269 L 399 272 L 405 279 L 413 282 L 414 286 L 418 286 L 423 291 L 423 294 L 413 303 L 409 303 L 409 306 L 395 317 L 390 318 L 387 323 L 352 351 L 344 350 L 316 372 L 311 373 L 309 377 L 292 390 L 284 390 L 268 399 L 264 399 L 263 403 L 220 433 L 215 434 L 206 444 L 206 457 L 212 461 L 212 466 L 206 482 L 203 483 L 204 486 L 191 515 L 186 515 L 183 522 L 183 530 L 188 533 L 185 546 L 182 548 L 183 554 L 188 559 L 192 558 L 193 561 L 200 560 L 199 556 L 202 548 L 207 542 L 219 542 L 221 545 L 224 544 L 241 550 L 248 555 L 267 556 L 278 552 L 289 542 L 292 542 L 299 527 L 303 525 L 302 522 L 305 521 L 304 518 L 309 506 L 313 483 L 315 482 L 313 481 L 313 448 L 310 445 L 309 438 L 311 437 L 309 436 L 310 432 L 307 429 L 306 423 L 307 417 L 314 409 L 313 405 L 325 393 L 333 390 L 336 385 L 339 385 L 345 377 L 355 372 L 359 366 L 360 359 L 364 355 L 370 353 L 382 340 L 386 340 L 389 335 L 396 332 L 399 327 L 402 327 L 406 321 L 420 310 L 423 310 L 427 304 L 435 300 L 440 306 L 446 308 L 469 326 L 473 332 L 480 334 L 483 340 L 486 340 L 493 348 L 504 353 L 506 364 L 557 406 L 556 411 L 559 412 L 564 420 L 562 438 L 559 442 L 561 445 L 558 448 L 558 490 L 564 512 L 563 516 L 566 517 L 579 541 L 587 549 L 601 556 L 615 555 L 631 549 L 636 550 L 640 546 L 657 541 L 664 542 L 668 546 L 670 551 L 669 555 L 674 560 L 680 560 L 686 556 L 688 549 L 683 539 L 683 533 L 688 529 L 688 521 L 686 517 L 682 517 L 679 514 L 675 505 L 676 502 L 673 501 L 672 493 L 670 493 L 659 466 L 659 460 L 666 456 L 664 443 L 643 426 L 604 400 L 602 396 L 572 387 L 566 379 L 563 379 L 535 359 L 531 353 L 526 352 L 519 346 L 513 347 L 507 340 L 496 335 L 482 322 L 463 309 L 457 301 L 454 302 L 446 295 L 445 290 L 453 286 L 453 284 L 466 273 L 472 271 L 478 263 L 482 263 L 485 258 L 493 252 L 496 252 L 496 250 L 510 238 L 515 237 L 517 232 L 520 233 L 522 229 L 525 229 L 526 225 L 558 201 L 564 194 L 576 188 L 578 183 L 581 184 L 583 179 L 591 176 L 593 172 L 596 172 L 596 170 L 648 126 L 654 124 L 665 112 L 671 110 L 673 105 L 676 106 L 676 104 L 691 91 L 697 89 L 704 80 L 708 80 L 708 78 L 726 62 L 737 60 L 747 51 L 754 49 L 771 34 L 776 33 L 783 25 L 786 25 L 791 18 Z M 600 431 L 605 431 L 626 447 L 628 451 L 624 452 L 623 449 L 611 443 L 600 434 Z M 273 429 L 271 435 L 267 435 L 264 440 L 259 441 L 250 451 L 241 457 L 237 456 L 240 450 L 244 450 L 245 446 L 259 436 L 262 436 L 263 432 L 270 428 Z M 574 427 L 578 427 L 580 434 L 583 434 L 593 441 L 598 447 L 597 452 L 599 453 L 601 466 L 599 469 L 602 473 L 600 477 L 603 481 L 607 517 L 603 533 L 610 532 L 614 523 L 617 521 L 615 520 L 615 493 L 612 490 L 604 460 L 604 454 L 609 453 L 623 462 L 631 472 L 637 476 L 644 491 L 648 504 L 647 508 L 654 523 L 653 528 L 649 532 L 646 532 L 644 536 L 637 536 L 636 539 L 603 549 L 595 546 L 594 543 L 590 543 L 581 533 L 574 521 L 573 512 L 568 505 L 565 480 L 567 479 L 565 478 L 565 473 L 567 472 L 565 471 L 567 451 Z M 295 425 L 298 428 L 302 443 L 302 454 L 305 458 L 306 483 L 305 492 L 302 496 L 304 497 L 302 506 L 286 537 L 280 542 L 277 542 L 275 546 L 261 549 L 228 536 L 227 533 L 222 533 L 221 529 L 217 526 L 220 512 L 223 510 L 223 502 L 234 476 L 247 463 L 263 452 L 266 453 L 267 458 L 264 461 L 264 470 L 261 472 L 261 481 L 258 483 L 259 486 L 256 491 L 257 498 L 254 502 L 256 505 L 253 517 L 260 532 L 263 535 L 268 531 L 264 526 L 264 510 L 266 494 L 269 489 L 267 488 L 269 470 L 272 466 L 270 465 L 272 448 L 281 438 L 284 439 L 290 432 L 291 427 Z M 780 10 L 778 15 L 774 16 L 772 20 L 747 39 L 743 38 L 745 32 L 749 32 L 751 28 L 754 28 L 756 24 L 775 9 Z" fill="#030549" fill-rule="evenodd"/>
<path d="M 86 7 L 80 19 L 109 41 L 115 49 L 119 48 L 135 60 L 142 61 L 144 65 L 150 67 L 179 90 L 186 99 L 193 102 L 202 112 L 205 112 L 225 128 L 230 135 L 233 134 L 246 148 L 249 148 L 256 156 L 264 160 L 267 165 L 270 165 L 283 176 L 283 179 L 288 181 L 296 168 L 292 169 L 283 163 L 270 149 L 267 149 L 265 145 L 259 143 L 255 137 L 247 133 L 244 128 L 238 126 L 233 119 L 230 119 L 213 106 L 212 102 L 204 99 L 197 93 L 197 90 L 191 88 L 181 80 L 178 75 L 175 75 L 173 71 L 170 71 L 155 60 L 146 51 L 146 46 L 134 36 L 128 26 L 117 21 L 95 2 L 90 3 Z M 90 11 L 95 10 L 116 25 L 119 30 L 122 30 L 127 37 L 122 38 L 116 31 L 112 31 L 92 15 Z" fill="#030549" fill-rule="evenodd"/>
<path d="M 594 832 L 587 835 L 581 848 L 583 849 L 581 852 L 588 860 L 589 858 L 595 857 L 590 857 L 586 854 L 588 839 L 591 838 Z" fill="#cc2731" fill-rule="evenodd"/>
<path d="M 547 832 L 536 840 L 534 855 L 542 860 L 544 857 L 549 856 L 541 857 L 539 855 L 540 840 L 543 839 Z" fill="#cc2731" fill-rule="evenodd"/>
<path d="M 329 832 L 324 833 L 316 850 L 318 853 L 317 856 L 321 858 L 328 857 L 323 855 L 321 847 L 323 846 L 322 842 L 324 837 L 328 835 Z" fill="#cc2731" fill-rule="evenodd"/>
<path d="M 242 832 L 239 835 L 239 841 L 248 850 L 247 857 L 251 856 L 250 848 L 240 837 Z" fill="#cc2731" fill-rule="evenodd"/>
<path d="M 715 831 L 712 832 L 714 834 L 713 844 L 706 854 L 703 853 L 703 842 L 700 838 L 701 832 L 697 831 L 691 834 L 697 835 L 699 838 L 697 841 L 701 849 L 700 856 L 702 857 L 702 861 L 705 860 L 706 855 L 717 837 Z" fill="#cc2731" fill-rule="evenodd"/>
<path d="M 684 831 L 672 831 L 666 833 L 665 837 L 662 838 L 660 854 L 663 858 L 673 856 L 666 857 L 663 853 L 664 842 L 672 831 L 676 831 L 680 836 L 678 847 L 674 851 L 678 858 L 682 857 L 680 846 L 682 838 L 685 835 Z" fill="#cc2731" fill-rule="evenodd"/>
<path d="M 638 831 L 635 835 L 636 839 L 632 847 L 632 853 L 635 855 L 635 859 L 644 858 L 644 856 L 648 854 L 648 852 L 645 853 L 643 857 L 639 857 L 636 853 L 637 845 L 639 844 L 638 841 L 640 840 L 639 837 L 641 836 Z" fill="#cc2731" fill-rule="evenodd"/>
<path d="M 626 831 L 619 832 L 622 837 L 618 843 L 619 848 L 616 857 L 622 860 L 627 857 L 623 857 L 621 851 Z" fill="#cc2731" fill-rule="evenodd"/>
<path d="M 596 831 L 599 831 L 603 836 L 603 841 L 600 843 L 601 847 L 598 849 L 598 853 L 601 858 L 606 857 L 603 856 L 603 849 L 605 848 L 605 839 L 609 831 Z" fill="#cc2731" fill-rule="evenodd"/>
<path d="M 508 832 L 500 831 L 491 836 L 491 840 L 488 842 L 489 850 L 487 851 L 491 858 L 504 858 L 513 844 L 511 843 L 511 838 L 513 837 Z M 505 831 L 508 834 L 507 839 L 509 840 L 506 846 L 507 850 L 502 856 L 495 858 L 492 853 L 493 840 L 496 838 L 495 835 L 498 832 Z" fill="#cc2731" fill-rule="evenodd"/>
<path d="M 469 832 L 455 832 L 447 843 L 448 848 L 446 849 L 451 857 L 459 858 L 464 855 L 457 857 L 452 854 L 451 847 L 455 846 L 453 845 L 454 836 L 460 831 L 463 831 L 465 833 L 465 839 L 462 842 L 464 843 Z" fill="#cc2731" fill-rule="evenodd"/>
<path d="M 436 831 L 430 832 L 434 834 L 435 838 L 433 841 L 434 844 L 432 845 L 433 848 L 431 849 L 432 859 L 438 857 L 435 851 L 437 850 L 437 841 L 440 838 Z" fill="#cc2731" fill-rule="evenodd"/>
<path d="M 352 831 L 350 833 L 356 836 L 355 840 L 357 841 L 356 846 L 358 847 L 357 851 L 359 852 L 358 856 L 360 857 L 360 861 L 365 857 L 367 851 L 364 853 L 361 852 L 359 832 Z" fill="#cc2731" fill-rule="evenodd"/>
<path d="M 331 831 L 334 831 L 338 836 L 333 853 L 336 855 L 334 858 L 340 858 L 343 854 L 340 855 L 338 852 L 340 848 L 339 845 L 341 844 L 340 838 L 343 835 L 342 831 Z" fill="#cc2731" fill-rule="evenodd"/>
<path d="M 296 831 L 294 834 L 297 834 L 298 837 L 296 838 L 297 842 L 294 848 L 295 854 L 292 857 L 296 858 L 299 853 L 298 848 L 300 842 L 303 841 L 301 839 L 301 832 Z" fill="#cc2731" fill-rule="evenodd"/>
<path d="M 282 831 L 276 831 L 273 835 L 269 835 L 268 832 L 261 833 L 265 836 L 265 841 L 262 844 L 263 847 L 260 852 L 261 858 L 259 866 L 253 869 L 264 870 L 262 865 L 264 858 L 274 859 L 282 853 L 282 849 L 286 844 Z M 281 834 L 281 846 L 278 853 L 271 858 L 266 858 L 264 852 L 266 844 L 269 842 L 269 836 L 275 833 Z" fill="#cc2731" fill-rule="evenodd"/>
<path d="M 217 833 L 207 831 L 200 834 L 200 837 L 197 838 L 197 844 L 194 846 L 196 847 L 197 856 L 206 858 L 199 853 L 199 845 L 201 844 L 201 837 L 204 836 L 204 833 L 207 831 L 213 833 L 213 838 L 210 842 L 215 838 Z" fill="#cc2731" fill-rule="evenodd"/>
<path d="M 404 825 L 400 828 L 400 832 L 395 832 L 399 835 L 397 848 L 394 851 L 398 860 L 404 856 L 398 856 L 398 850 L 401 847 L 400 841 L 403 839 L 402 833 L 410 832 L 403 831 Z" fill="#cc2731" fill-rule="evenodd"/>
<path d="M 152 857 L 156 857 L 167 837 L 170 837 L 172 840 L 170 843 L 172 844 L 173 852 L 171 853 L 173 857 L 177 857 L 178 854 L 181 853 L 182 847 L 197 820 L 189 818 L 192 828 L 184 843 L 181 844 L 181 849 L 178 850 L 175 847 L 174 834 L 176 833 L 174 832 L 174 823 L 178 818 L 175 820 L 168 818 L 167 820 L 171 822 L 169 826 L 170 829 L 165 839 L 162 840 L 163 843 L 160 848 L 155 850 L 153 843 L 155 839 L 153 838 L 152 828 L 154 827 L 152 824 L 157 818 L 153 818 L 152 820 L 146 818 L 145 820 L 149 823 L 148 829 L 151 835 L 149 838 L 151 839 L 152 848 L 150 849 L 152 850 Z" fill="#cc2731" fill-rule="evenodd"/>
<path d="M 562 815 L 561 817 L 557 817 L 559 819 L 558 828 L 549 831 L 556 834 L 554 838 L 555 843 L 551 852 L 553 858 L 558 858 L 555 852 L 557 851 L 558 837 L 561 833 L 561 826 L 563 825 L 562 819 L 565 816 Z" fill="#cc2731" fill-rule="evenodd"/>
<path d="M 530 815 L 526 818 L 525 834 L 522 837 L 522 847 L 519 850 L 520 855 L 518 856 L 522 860 L 526 858 L 523 857 L 522 853 L 525 850 L 524 844 L 527 841 L 526 838 L 529 833 L 528 827 L 531 824 Z" fill="#cc2731" fill-rule="evenodd"/>
<path d="M 426 815 L 421 817 L 423 823 L 420 825 L 421 831 L 417 838 L 418 843 L 414 858 L 419 855 L 418 850 L 421 847 L 421 841 L 424 836 L 422 832 L 425 830 Z" fill="#cc2731" fill-rule="evenodd"/>
<path d="M 433 313 L 416 325 L 414 329 L 411 329 L 406 335 L 406 461 L 433 476 L 438 476 L 503 440 L 538 414 L 543 407 L 538 401 L 533 399 L 531 395 L 521 389 L 520 386 L 511 381 L 509 377 L 505 376 L 503 372 L 500 372 L 495 364 L 495 360 L 488 355 L 486 351 L 478 347 L 476 343 L 468 339 L 467 336 L 464 336 L 437 313 Z" fill="#cc2731" fill-rule="evenodd"/>
<path d="M 527 238 L 522 240 L 520 244 L 517 244 L 511 251 L 508 251 L 508 253 L 496 261 L 494 265 L 491 265 L 489 269 L 480 274 L 478 278 L 471 281 L 469 285 L 461 289 L 460 293 L 463 297 L 466 297 L 467 300 L 470 300 L 471 303 L 474 303 L 475 306 L 483 310 L 484 313 L 492 317 L 493 320 L 496 320 L 498 324 L 501 324 L 502 327 L 510 331 L 511 334 L 514 336 L 522 336 L 525 340 L 532 343 L 533 346 L 540 349 L 541 352 L 544 352 L 548 357 L 554 359 L 555 362 L 561 364 L 577 378 L 600 343 L 611 315 L 617 285 L 618 240 L 617 238 Z" fill="#cc2731" fill-rule="evenodd"/>
<path d="M 407 252 L 413 256 L 415 260 L 418 260 L 419 263 L 422 263 L 423 266 L 426 266 L 427 269 L 430 269 L 431 272 L 437 272 L 444 264 L 451 261 L 452 258 L 462 250 L 465 250 L 467 246 L 470 246 L 470 244 L 475 242 L 478 238 L 407 238 Z" fill="#cc2731" fill-rule="evenodd"/>
<path d="M 716 830 L 711 831 L 713 841 L 707 852 L 704 851 L 700 831 L 696 830 L 692 833 L 691 837 L 693 835 L 697 837 L 701 861 L 692 869 L 686 867 L 686 872 L 694 871 L 707 857 L 715 843 L 717 836 Z" fill="#890d15" fill-rule="evenodd"/>
<path d="M 671 830 L 660 842 L 659 855 L 662 859 L 669 859 L 673 855 L 675 855 L 677 859 L 682 859 L 687 855 L 687 853 L 685 855 L 681 854 L 686 830 Z M 677 832 L 679 834 L 679 840 L 676 849 L 670 856 L 667 856 L 664 852 L 666 840 L 673 832 Z" fill="#890d15" fill-rule="evenodd"/>
<path d="M 615 834 L 615 837 L 617 835 L 620 836 L 616 856 L 621 860 L 626 859 L 630 855 L 636 859 L 645 857 L 653 845 L 655 836 L 653 830 L 649 830 L 648 832 L 651 835 L 650 846 L 646 853 L 640 856 L 637 854 L 637 848 L 641 831 L 636 830 L 633 847 L 626 856 L 623 856 L 621 852 L 626 832 L 625 830 L 620 830 Z M 635 842 L 638 843 L 637 858 L 635 858 L 633 854 Z" fill="#890d15" fill-rule="evenodd"/>
<path d="M 594 830 L 588 834 L 583 842 L 581 849 L 582 856 L 585 859 L 592 859 L 598 855 L 600 859 L 605 859 L 610 855 L 610 853 L 607 856 L 604 855 L 609 830 Z M 600 832 L 602 839 L 599 849 L 593 856 L 589 856 L 587 853 L 588 842 L 596 832 Z" fill="#890d15" fill-rule="evenodd"/>
<path d="M 509 831 L 499 830 L 490 838 L 487 850 L 489 856 L 493 859 L 501 859 L 511 850 L 513 838 Z M 494 836 L 495 839 L 492 850 L 489 851 L 488 844 L 491 837 Z M 504 832 L 507 835 L 507 846 L 504 853 L 500 857 L 496 857 L 493 854 L 494 841 L 499 833 Z" fill="#890d15" fill-rule="evenodd"/>
<path d="M 468 831 L 459 830 L 451 836 L 447 844 L 447 854 L 450 858 L 460 859 L 467 854 L 466 852 L 461 856 L 456 856 L 452 851 L 452 847 L 467 841 L 469 838 Z M 462 832 L 464 838 L 454 844 L 453 841 L 459 832 Z" fill="#890d15" fill-rule="evenodd"/>
<path d="M 374 830 L 369 831 L 371 841 L 365 852 L 362 851 L 357 830 L 354 830 L 348 836 L 353 835 L 355 837 L 359 861 L 350 869 L 344 867 L 343 872 L 350 872 L 362 861 L 374 840 Z" fill="#890d15" fill-rule="evenodd"/>
<path d="M 329 830 L 323 834 L 318 842 L 317 855 L 320 859 L 327 859 L 331 855 L 333 855 L 335 859 L 341 859 L 345 855 L 345 853 L 342 856 L 339 855 L 344 830 Z M 321 838 L 324 839 L 321 850 L 324 856 L 323 859 L 317 854 L 317 846 Z M 335 832 L 337 834 L 335 846 L 328 856 L 325 856 L 322 853 L 324 840 L 329 833 Z" fill="#890d15" fill-rule="evenodd"/>
<path d="M 315 830 L 310 830 L 305 835 L 302 834 L 303 830 L 292 832 L 292 834 L 297 836 L 292 859 L 297 859 L 302 841 L 308 834 L 314 837 L 316 834 Z" fill="#890d15" fill-rule="evenodd"/>
<path d="M 284 831 L 276 830 L 270 833 L 269 830 L 260 832 L 260 834 L 264 835 L 257 868 L 252 871 L 268 870 L 263 868 L 264 860 L 276 858 L 281 854 L 286 843 Z M 264 850 L 265 858 L 263 864 L 260 865 L 259 859 L 261 851 Z M 279 833 L 281 840 L 277 852 L 272 857 L 266 857 L 265 853 L 270 838 L 274 833 Z" fill="#890d15" fill-rule="evenodd"/>
<path d="M 253 831 L 243 830 L 238 834 L 237 840 L 247 851 L 247 855 L 240 857 L 237 852 L 234 852 L 234 858 L 246 859 L 250 857 L 252 849 L 242 838 L 242 834 L 248 832 L 251 837 L 254 837 L 255 833 Z" fill="#890d15" fill-rule="evenodd"/>
<path d="M 214 830 L 204 831 L 196 840 L 194 852 L 199 859 L 208 859 L 214 854 L 214 852 L 208 856 L 204 856 L 200 852 L 201 846 L 209 844 L 216 839 L 217 834 Z M 197 840 L 200 841 L 199 850 L 202 855 L 201 858 L 195 854 Z M 210 832 L 212 834 L 211 839 L 202 844 L 201 840 L 207 832 Z" fill="#890d15" fill-rule="evenodd"/>
<path d="M 405 824 L 401 825 L 399 831 L 394 831 L 393 833 L 398 834 L 394 852 L 395 859 L 402 859 L 408 853 L 403 856 L 399 855 L 403 834 L 411 833 L 412 831 L 405 831 Z" fill="#890d15" fill-rule="evenodd"/>
<path d="M 151 859 L 157 858 L 167 839 L 169 839 L 171 843 L 172 859 L 177 859 L 196 822 L 199 821 L 200 818 L 188 818 L 188 821 L 191 822 L 191 826 L 179 849 L 176 848 L 175 822 L 179 821 L 180 818 L 165 819 L 165 821 L 169 822 L 170 826 L 158 848 L 155 847 L 153 823 L 157 821 L 158 818 L 144 818 L 143 821 L 148 824 Z M 172 819 L 175 820 L 175 830 L 172 831 L 175 832 L 174 837 L 167 834 Z" fill="#890d15" fill-rule="evenodd"/>
<path d="M 523 816 L 522 818 L 526 819 L 519 858 L 526 859 L 534 854 L 538 859 L 544 859 L 549 855 L 551 855 L 554 860 L 559 859 L 563 853 L 557 856 L 556 851 L 565 815 L 554 817 L 558 819 L 557 829 L 543 832 L 535 843 L 534 853 L 530 853 L 528 856 L 524 855 L 524 850 L 533 815 Z M 553 832 L 555 838 L 552 848 L 546 856 L 542 856 L 539 852 L 542 839 L 547 833 Z M 528 827 L 529 831 L 523 853 L 524 858 L 521 859 L 519 852 L 524 830 Z M 562 820 L 563 823 L 559 840 L 556 841 L 558 821 Z" fill="#890d15" fill-rule="evenodd"/>
<path d="M 428 815 L 418 816 L 418 818 L 421 819 L 421 825 L 412 859 L 418 859 L 421 844 L 429 833 L 435 835 L 431 858 L 438 859 L 442 855 L 442 853 L 439 856 L 436 855 L 440 837 L 439 832 L 437 830 L 425 831 Z M 420 841 L 421 845 L 418 857 L 415 858 L 416 844 Z" fill="#890d15" fill-rule="evenodd"/>
<path d="M 526 237 L 457 292 L 516 337 L 525 339 L 578 378 L 522 337 L 513 335 L 461 295 L 460 291 L 527 237 L 607 237 L 608 239 L 609 237 L 617 237 Z" fill="#890d15" fill-rule="evenodd"/>
<path d="M 405 336 L 401 337 L 399 341 L 396 341 L 394 345 L 386 349 L 378 358 L 375 358 L 365 375 L 361 376 L 359 380 L 356 380 L 354 384 L 345 389 L 343 393 L 334 398 L 334 400 L 325 407 L 349 427 L 403 460 L 405 460 Z" fill="#023870" fill-rule="evenodd"/>
<path d="M 404 60 L 335 81 L 308 87 L 252 95 L 252 122 L 255 128 L 258 128 L 266 137 L 269 137 L 271 141 L 275 142 L 299 162 L 289 181 L 282 180 L 281 184 L 276 184 L 270 177 L 253 166 L 252 246 L 256 297 L 270 341 L 278 357 L 292 376 L 300 373 L 302 369 L 305 369 L 306 366 L 323 355 L 323 353 L 332 346 L 335 346 L 339 341 L 350 339 L 358 332 L 361 332 L 362 329 L 402 298 L 405 298 L 410 291 L 407 291 L 402 285 L 399 285 L 392 280 L 391 277 L 387 276 L 387 272 L 405 253 Z M 330 165 L 334 168 L 335 178 L 338 181 L 337 185 L 340 188 L 343 199 L 342 203 L 346 211 L 391 212 L 390 218 L 380 223 L 379 226 L 361 239 L 358 239 L 355 244 L 358 247 L 362 259 L 361 262 L 364 265 L 370 283 L 368 287 L 333 262 L 332 259 L 319 270 L 313 272 L 312 275 L 309 275 L 304 281 L 301 281 L 300 284 L 297 284 L 296 287 L 292 287 L 291 284 L 305 242 L 288 230 L 287 227 L 284 227 L 269 216 L 270 212 L 278 211 L 315 212 L 320 195 L 323 192 L 322 188 L 326 182 L 325 179 L 329 172 L 328 168 Z" fill="#023870" fill-rule="evenodd"/>
<path d="M 763 779 L 759 779 L 757 782 L 760 787 L 759 796 L 766 787 L 766 782 Z" fill="#020427" fill-rule="evenodd"/>
<path d="M 825 740 L 825 743 L 831 746 L 831 781 L 825 784 L 825 787 L 859 787 L 860 773 L 857 773 L 855 779 L 850 783 L 840 782 L 840 746 L 846 743 L 846 740 Z M 830 741 L 841 742 L 838 747 L 840 748 L 840 786 L 830 785 Z" fill="#020427" fill-rule="evenodd"/>
<path d="M 784 740 L 784 743 L 789 745 L 790 779 L 787 784 L 784 784 L 784 787 L 819 787 L 820 773 L 817 773 L 815 778 L 809 783 L 799 782 L 799 746 L 805 743 L 805 740 Z M 789 741 L 799 742 L 797 746 L 799 751 L 798 786 L 790 785 Z" fill="#020427" fill-rule="evenodd"/>
<path d="M 653 740 L 653 743 L 658 747 L 658 780 L 653 784 L 653 787 L 668 787 L 668 784 L 663 781 L 663 775 L 659 774 L 659 772 L 662 771 L 662 758 L 664 756 L 667 757 L 688 786 L 695 787 L 695 746 L 700 743 L 700 740 L 685 740 L 685 743 L 690 746 L 689 767 L 684 764 L 667 740 Z M 658 741 L 666 741 L 688 770 L 691 770 L 691 762 L 695 762 L 695 782 L 693 785 L 689 786 L 666 754 L 660 753 L 657 745 Z" fill="#020427" fill-rule="evenodd"/>
<path d="M 623 740 L 623 743 L 627 744 L 629 748 L 629 780 L 626 784 L 623 784 L 623 787 L 644 787 L 643 784 L 638 781 L 638 746 L 643 743 L 643 740 Z M 628 741 L 639 742 L 637 767 L 638 786 L 628 785 Z" fill="#020427" fill-rule="evenodd"/>
<path d="M 563 740 L 563 743 L 568 746 L 568 782 L 563 784 L 563 787 L 583 787 L 583 784 L 578 782 L 579 765 L 598 765 L 599 780 L 594 784 L 594 787 L 613 787 L 613 784 L 608 781 L 608 745 L 613 743 L 613 740 L 594 740 L 594 743 L 599 747 L 598 761 L 579 761 L 578 746 L 578 786 L 568 785 L 569 747 L 567 742 L 578 741 L 579 743 L 583 743 L 583 740 Z M 598 741 L 609 742 L 606 747 L 608 748 L 607 786 L 599 785 Z" fill="#020427" fill-rule="evenodd"/>
<path d="M 484 740 L 470 782 L 466 784 L 466 787 L 480 787 L 480 784 L 477 783 L 477 778 L 480 773 L 494 773 L 497 778 L 497 783 L 494 784 L 494 787 L 513 787 L 513 784 L 511 784 L 507 778 L 494 740 Z M 479 766 L 481 772 L 477 776 L 476 785 L 470 786 L 469 783 L 471 782 L 475 769 Z M 486 753 L 489 754 L 493 766 L 492 769 L 481 768 Z M 485 741 L 494 742 L 504 772 L 510 783 L 509 786 L 499 786 L 497 784 L 498 779 L 496 773 L 492 772 L 494 767 L 489 752 L 483 750 Z" fill="#020427" fill-rule="evenodd"/>
<path d="M 397 740 L 397 743 L 399 743 L 403 749 L 416 787 L 424 787 L 432 765 L 436 767 L 443 787 L 451 787 L 464 748 L 469 743 L 469 740 L 456 740 L 456 743 L 459 744 L 459 751 L 452 772 L 449 773 L 440 751 L 440 744 L 443 743 L 443 740 L 424 740 L 424 743 L 429 747 L 431 757 L 425 773 L 421 775 L 413 750 L 413 744 L 416 743 L 417 740 Z M 429 741 L 439 742 L 439 749 L 448 776 L 452 778 L 452 783 L 448 786 L 442 782 L 435 762 L 431 760 L 432 754 L 428 745 Z M 402 741 L 411 741 L 413 743 L 414 759 L 416 760 L 415 763 L 418 767 L 420 777 L 424 779 L 423 785 L 417 786 L 414 782 L 414 777 L 412 776 L 401 744 Z" fill="#020427" fill-rule="evenodd"/>
<path d="M 335 740 L 335 743 L 341 747 L 341 780 L 338 784 L 335 784 L 335 787 L 373 787 L 374 776 L 372 775 L 363 783 L 350 782 L 350 766 L 357 764 L 365 770 L 366 757 L 363 757 L 361 761 L 351 761 L 350 745 L 363 744 L 370 751 L 372 750 L 371 740 Z M 340 741 L 350 742 L 350 786 L 340 785 Z" fill="#020427" fill-rule="evenodd"/>
<path d="M 284 740 L 284 743 L 289 746 L 289 782 L 284 784 L 284 787 L 304 787 L 304 784 L 299 782 L 300 766 L 305 767 L 316 787 L 328 787 L 328 784 L 321 778 L 315 768 L 315 764 L 318 763 L 323 756 L 321 745 L 311 740 Z M 300 743 L 308 744 L 313 749 L 313 757 L 308 762 L 299 761 Z M 310 741 L 318 743 L 322 748 L 322 757 L 313 766 L 324 782 L 323 786 L 318 786 L 313 782 L 307 768 L 304 766 L 305 763 L 312 760 L 315 756 L 314 747 L 309 744 Z M 290 741 L 298 742 L 297 752 L 300 764 L 298 767 L 298 786 L 290 785 Z" fill="#020427" fill-rule="evenodd"/>
<path d="M 228 740 L 228 743 L 234 746 L 234 776 L 236 781 L 240 785 L 248 788 L 256 788 L 266 784 L 271 775 L 271 747 L 276 743 L 276 740 L 261 740 L 261 743 L 266 746 L 266 774 L 264 778 L 257 783 L 249 782 L 243 773 L 243 745 L 248 743 L 249 740 Z M 234 741 L 242 740 L 244 742 L 243 775 L 246 782 L 253 784 L 252 787 L 243 786 L 236 780 L 234 773 Z" fill="#020427" fill-rule="evenodd"/>
<path d="M 100 740 L 100 743 L 105 746 L 105 782 L 100 784 L 100 787 L 137 787 L 138 776 L 136 775 L 130 782 L 115 782 L 116 764 L 125 765 L 127 769 L 130 770 L 130 757 L 127 757 L 125 761 L 115 760 L 115 746 L 116 764 L 114 768 L 114 778 L 116 785 L 105 785 L 105 742 L 115 741 L 116 744 L 127 744 L 134 751 L 136 750 L 135 740 Z" fill="#020427" fill-rule="evenodd"/>
<path d="M 48 740 L 48 743 L 53 746 L 53 782 L 48 784 L 48 787 L 68 787 L 68 784 L 65 784 L 63 781 L 64 766 L 69 767 L 80 787 L 92 787 L 92 784 L 87 781 L 79 768 L 79 765 L 84 762 L 87 757 L 85 745 L 75 740 Z M 64 743 L 72 744 L 77 749 L 77 757 L 72 762 L 63 761 Z M 75 741 L 82 743 L 86 749 L 86 758 L 82 763 L 77 763 L 77 766 L 87 781 L 87 786 L 80 785 L 77 782 L 69 767 L 69 764 L 75 761 L 78 754 L 77 746 L 74 744 Z M 53 741 L 63 742 L 62 760 L 64 765 L 62 769 L 62 786 L 53 785 Z" fill="#020427" fill-rule="evenodd"/>
<path d="M 2 740 L 2 743 L 7 746 L 7 782 L 2 784 L 2 787 L 24 787 L 24 784 L 17 781 L 17 770 L 36 766 L 41 760 L 41 749 L 35 742 L 28 740 Z M 18 744 L 26 744 L 31 750 L 31 759 L 25 765 L 17 764 Z M 29 741 L 38 746 L 41 752 L 41 758 L 35 766 L 27 768 L 26 765 L 30 762 L 32 756 L 31 748 L 28 745 Z M 8 741 L 17 742 L 15 748 L 15 760 L 18 765 L 16 773 L 17 786 L 7 785 L 9 776 Z" fill="#020427" fill-rule="evenodd"/>
<path d="M 894 740 L 878 740 L 869 745 L 863 755 L 862 767 L 864 775 L 874 786 L 881 788 L 891 787 L 902 780 L 899 776 L 890 783 L 884 783 L 876 777 L 873 771 L 873 754 L 876 748 L 881 744 L 890 744 L 895 748 L 897 754 L 900 754 L 900 743 Z M 879 741 L 880 744 L 874 750 L 871 770 L 876 779 L 887 784 L 886 787 L 874 785 L 866 777 L 863 770 L 864 754 L 868 747 Z" fill="#020427" fill-rule="evenodd"/>
<path d="M 735 739 L 724 740 L 715 745 L 711 750 L 708 758 L 708 769 L 713 780 L 719 785 L 734 788 L 748 784 L 748 769 L 752 767 L 752 764 L 733 765 L 733 767 L 739 771 L 739 781 L 737 783 L 727 782 L 720 774 L 718 765 L 720 752 L 727 744 L 737 744 L 743 749 L 744 754 L 748 754 L 747 742 Z M 738 765 L 748 766 L 747 782 L 743 785 L 739 784 Z M 721 742 L 724 743 L 724 746 L 719 752 L 718 770 L 724 781 L 733 783 L 733 787 L 726 787 L 717 783 L 710 774 L 711 770 L 708 767 L 710 753 L 714 747 Z" fill="#020427" fill-rule="evenodd"/>
<path d="M 545 740 L 531 740 L 522 748 L 521 753 L 525 763 L 540 769 L 545 774 L 544 780 L 540 783 L 531 783 L 525 777 L 525 774 L 521 774 L 521 781 L 525 786 L 539 788 L 548 785 L 553 779 L 554 771 L 552 766 L 548 762 L 536 758 L 530 753 L 530 748 L 534 744 L 542 744 L 546 747 L 548 753 L 551 753 L 551 743 Z M 529 742 L 532 743 L 529 749 L 530 754 L 546 762 L 553 770 L 553 777 L 547 785 L 543 783 L 547 777 L 544 771 L 533 767 L 523 759 L 523 748 Z" fill="#020427" fill-rule="evenodd"/>
<path d="M 203 739 L 194 742 L 190 746 L 188 755 L 193 764 L 210 771 L 212 778 L 207 783 L 199 783 L 193 778 L 192 773 L 189 774 L 189 784 L 195 787 L 207 788 L 215 785 L 219 781 L 221 771 L 215 762 L 198 755 L 197 748 L 201 744 L 209 744 L 215 753 L 218 753 L 218 742 Z M 197 741 L 204 741 L 203 744 L 196 747 L 198 756 L 214 762 L 216 766 L 219 767 L 220 778 L 216 783 L 212 782 L 211 771 L 191 761 L 189 750 Z" fill="#020427" fill-rule="evenodd"/>
<path d="M 162 739 L 153 742 L 148 748 L 147 753 L 151 763 L 170 772 L 171 779 L 167 783 L 158 783 L 152 778 L 151 774 L 148 774 L 148 785 L 165 788 L 173 786 L 179 780 L 180 770 L 177 764 L 160 757 L 156 753 L 156 748 L 160 744 L 170 745 L 174 753 L 177 753 L 177 742 Z M 156 741 L 159 742 L 155 750 L 158 757 L 171 761 L 179 768 L 179 778 L 173 785 L 170 784 L 172 778 L 170 771 L 155 765 L 148 757 L 148 750 Z" fill="#020427" fill-rule="evenodd"/>
<path d="M 179 620 L 166 662 L 178 624 L 182 623 L 194 658 L 193 663 L 184 664 L 194 664 L 195 655 L 192 652 L 182 620 Z" fill="#020427" fill-rule="evenodd"/>
<path d="M 282 607 L 281 692 L 283 695 L 300 694 L 313 687 L 322 672 L 325 657 L 323 632 L 318 620 L 308 609 L 301 607 Z M 283 607 L 299 607 L 310 612 L 318 621 L 324 640 L 324 662 L 320 676 L 309 689 L 297 694 L 282 693 Z" fill="#020427" fill-rule="evenodd"/>
<path d="M 709 597 L 709 603 L 715 605 L 721 614 L 748 704 L 771 704 L 787 655 L 791 648 L 794 649 L 810 703 L 835 703 L 860 615 L 863 609 L 872 603 L 871 596 L 843 596 L 843 603 L 850 607 L 850 614 L 830 676 L 827 675 L 808 614 L 808 608 L 812 604 L 818 603 L 818 597 L 769 596 L 769 603 L 775 605 L 780 611 L 785 628 L 767 677 L 764 676 L 745 611 L 746 606 L 753 603 L 753 596 Z M 710 598 L 752 598 L 752 602 L 745 606 L 745 614 L 764 677 L 768 679 L 786 626 L 784 622 L 785 619 L 779 608 L 771 602 L 772 597 L 815 597 L 817 599 L 816 603 L 812 603 L 808 607 L 808 616 L 819 648 L 820 658 L 823 661 L 828 677 L 831 677 L 849 621 L 851 608 L 844 602 L 844 598 L 870 597 L 871 600 L 864 606 L 858 616 L 859 619 L 855 627 L 852 644 L 835 702 L 813 703 L 806 688 L 807 683 L 804 682 L 799 666 L 799 659 L 797 658 L 794 647 L 790 645 L 771 702 L 749 703 L 722 615 L 715 604 L 710 602 Z" fill="#020427" fill-rule="evenodd"/>
<path d="M 619 596 L 619 603 L 623 604 L 628 611 L 628 691 L 624 696 L 618 697 L 618 704 L 702 704 L 705 678 L 698 676 L 695 683 L 684 692 L 674 694 L 654 694 L 652 692 L 653 654 L 671 654 L 679 660 L 679 664 L 687 665 L 687 635 L 680 635 L 679 640 L 672 645 L 652 644 L 652 608 L 678 607 L 685 610 L 694 622 L 701 620 L 699 596 Z M 620 597 L 696 597 L 699 600 L 699 620 L 693 619 L 689 612 L 680 607 L 652 607 L 652 645 L 674 645 L 681 637 L 686 638 L 685 664 L 681 664 L 679 658 L 673 654 L 652 655 L 653 694 L 685 693 L 696 685 L 698 678 L 703 678 L 704 686 L 702 701 L 700 703 L 619 702 L 619 700 L 624 698 L 629 688 L 628 609 L 624 604 L 619 602 Z" fill="#020427" fill-rule="evenodd"/>
<path d="M 503 596 L 503 604 L 508 605 L 513 614 L 513 688 L 507 697 L 503 697 L 503 704 L 535 704 L 535 697 L 529 696 L 525 690 L 525 631 L 528 630 L 581 705 L 595 705 L 596 611 L 600 605 L 606 603 L 606 596 L 574 596 L 574 603 L 579 604 L 584 610 L 583 664 L 579 662 L 533 596 Z M 504 597 L 532 597 L 568 645 L 583 669 L 585 669 L 585 613 L 583 607 L 575 602 L 575 598 L 605 598 L 605 602 L 596 609 L 595 704 L 582 704 L 579 702 L 579 699 L 548 659 L 526 626 L 524 627 L 524 691 L 527 696 L 534 699 L 534 702 L 505 702 L 505 698 L 511 695 L 513 690 L 513 608 L 503 601 Z" fill="#020427" fill-rule="evenodd"/>
<path d="M 363 596 L 363 604 L 367 604 L 372 610 L 372 691 L 367 697 L 362 698 L 362 704 L 446 704 L 449 678 L 442 676 L 439 683 L 428 692 L 417 694 L 398 694 L 396 692 L 397 654 L 416 654 L 423 659 L 424 664 L 431 665 L 431 634 L 424 635 L 423 641 L 419 644 L 396 644 L 396 608 L 422 607 L 429 610 L 435 616 L 437 622 L 444 620 L 442 596 Z M 364 597 L 439 597 L 442 600 L 442 620 L 438 620 L 429 609 L 423 607 L 396 607 L 396 644 L 402 646 L 419 646 L 425 638 L 429 638 L 431 642 L 429 663 L 425 663 L 423 658 L 417 654 L 396 655 L 396 692 L 398 694 L 426 693 L 433 690 L 442 679 L 447 678 L 448 685 L 444 703 L 363 702 L 363 699 L 368 697 L 372 692 L 372 609 L 370 605 L 363 601 Z" fill="#020427" fill-rule="evenodd"/>
<path d="M 248 596 L 248 603 L 256 607 L 258 615 L 258 688 L 253 696 L 248 697 L 248 704 L 304 704 L 323 699 L 335 692 L 346 679 L 352 661 L 351 636 L 342 616 L 327 603 L 309 597 Z M 250 597 L 311 598 L 331 606 L 342 617 L 350 634 L 352 656 L 348 674 L 334 692 L 322 699 L 308 703 L 250 702 L 249 698 L 256 696 L 258 690 L 259 643 L 258 611 L 255 605 L 250 602 Z" fill="#020427" fill-rule="evenodd"/>
<path d="M 163 596 L 163 603 L 166 603 L 170 607 L 169 616 L 142 692 L 134 697 L 134 704 L 165 704 L 165 697 L 161 697 L 158 694 L 158 687 L 163 674 L 198 674 L 202 682 L 204 693 L 200 697 L 195 698 L 196 704 L 239 704 L 239 697 L 236 697 L 229 688 L 196 596 Z M 165 597 L 196 598 L 222 668 L 225 681 L 232 696 L 237 698 L 236 703 L 199 703 L 198 699 L 203 696 L 204 687 L 200 675 L 196 673 L 163 674 L 157 692 L 159 696 L 164 699 L 164 702 L 136 702 L 136 698 L 143 692 L 147 685 L 147 680 L 155 656 L 158 653 L 170 614 L 170 606 L 164 602 Z" fill="#020427" fill-rule="evenodd"/>
<path d="M 0 596 L 0 603 L 9 609 L 10 686 L 9 692 L 4 697 L 0 697 L 0 704 L 30 704 L 30 697 L 27 697 L 21 688 L 22 627 L 25 628 L 51 704 L 62 704 L 89 627 L 92 628 L 92 691 L 88 696 L 82 697 L 82 704 L 124 704 L 124 697 L 120 697 L 115 691 L 115 682 L 116 695 L 124 699 L 122 703 L 83 702 L 86 697 L 91 695 L 93 685 L 93 621 L 89 623 L 72 675 L 68 680 L 68 686 L 64 692 L 63 700 L 59 703 L 52 703 L 41 675 L 42 672 L 39 669 L 24 622 L 20 620 L 21 690 L 23 695 L 30 699 L 30 702 L 1 702 L 1 699 L 10 691 L 10 611 L 8 606 L 1 602 L 2 597 L 38 598 L 60 663 L 64 665 L 86 598 L 124 598 L 122 603 L 115 609 L 115 634 L 115 610 L 119 605 L 124 604 L 124 596 L 86 596 L 64 662 L 61 662 L 39 597 Z" fill="#020427" fill-rule="evenodd"/>
<path d="M 597 429 L 607 440 L 629 455 L 631 453 L 601 428 Z" fill="#020427" fill-rule="evenodd"/>
<path d="M 274 429 L 269 428 L 238 454 L 243 457 L 247 451 L 269 436 Z" fill="#020427" fill-rule="evenodd"/>
<path d="M 575 426 L 568 451 L 566 487 L 569 505 L 579 529 L 590 543 L 603 548 L 628 542 L 644 535 L 653 526 L 650 510 L 646 503 L 647 499 L 644 497 L 640 484 L 632 471 L 608 453 L 607 454 L 629 469 L 636 477 L 651 517 L 652 527 L 646 533 L 611 547 L 601 547 L 594 544 L 579 526 L 570 506 L 566 479 L 568 454 L 575 428 L 579 429 L 581 435 L 597 447 L 605 512 L 605 526 L 601 530 L 602 534 L 607 535 L 614 529 L 617 520 L 617 505 L 604 455 L 615 496 L 616 522 L 610 533 L 605 534 L 602 531 L 606 525 L 598 450 L 595 444 L 587 439 Z" fill="#020427" fill-rule="evenodd"/>
<path d="M 295 426 L 292 428 L 295 427 L 297 430 L 303 454 L 304 489 L 299 510 L 287 532 L 274 545 L 258 547 L 221 530 L 219 520 L 229 490 L 236 476 L 246 466 L 264 455 L 265 461 L 255 496 L 254 523 L 261 534 L 266 535 L 269 533 L 269 529 L 265 525 L 265 515 L 274 446 L 288 436 L 291 431 L 287 436 L 276 443 L 273 448 L 264 519 L 267 533 L 260 533 L 254 521 L 255 499 L 266 458 L 265 453 L 257 456 L 235 476 L 219 518 L 218 526 L 222 532 L 261 548 L 274 546 L 289 532 L 295 519 L 298 517 L 301 503 L 304 500 L 303 494 L 305 493 L 304 458 L 300 438 Z" fill="#020427" fill-rule="evenodd"/>
<path d="M 316 421 L 323 430 L 365 461 L 435 500 L 500 465 L 554 425 L 554 421 L 546 408 L 521 429 L 496 446 L 545 411 L 548 412 L 552 420 L 552 425 L 546 431 L 494 468 L 434 499 L 374 466 L 325 431 L 318 424 L 318 419 L 327 404 L 322 409 Z" fill="#020427" fill-rule="evenodd"/>
<path d="M 395 270 L 421 291 L 419 296 L 352 349 L 343 349 L 293 388 L 280 390 L 267 397 L 205 443 L 204 453 L 211 464 L 190 514 L 185 516 L 182 520 L 181 529 L 187 534 L 181 551 L 182 556 L 187 558 L 182 554 L 182 550 L 188 535 L 182 529 L 182 522 L 184 518 L 190 515 L 211 466 L 211 459 L 207 457 L 204 451 L 206 447 L 205 444 L 266 398 L 284 389 L 292 389 L 344 349 L 352 350 L 419 297 L 423 292 Z" fill="#020427" fill-rule="evenodd"/>
<path d="M 637 148 L 619 163 L 620 235 L 619 278 L 616 295 L 620 273 L 620 164 L 631 154 L 636 154 L 637 285 L 634 306 L 620 347 L 601 379 L 597 383 L 582 379 L 583 372 L 589 364 L 578 379 L 596 385 L 609 368 L 626 334 L 635 302 L 638 279 Z" fill="#020427" fill-rule="evenodd"/>
<path d="M 234 148 L 234 287 L 240 317 L 252 349 L 274 385 L 293 378 L 274 383 L 259 362 L 247 337 L 236 298 L 234 283 L 235 154 L 238 153 L 252 163 Z" fill="#020427" fill-rule="evenodd"/>
<path d="M 233 78 L 233 110 L 259 131 L 233 109 L 234 78 L 303 68 L 369 52 L 437 25 L 461 37 L 524 58 L 574 69 L 612 74 L 613 76 L 635 77 L 638 81 L 638 108 L 620 122 L 620 95 L 618 93 L 554 83 L 553 81 L 549 82 L 532 78 L 528 75 L 513 73 L 475 61 L 474 59 L 469 59 L 453 53 L 450 49 L 447 50 L 438 46 L 430 47 L 406 57 L 405 95 L 405 59 L 437 46 L 482 64 L 530 78 L 572 87 L 618 93 L 618 126 L 638 109 L 638 77 L 571 68 L 531 59 L 485 45 L 436 24 L 392 43 L 336 60 L 279 72 Z" fill="#020427" fill-rule="evenodd"/>
<path d="M 779 9 L 775 10 L 750 31 L 745 33 L 744 38 L 749 37 L 780 12 Z" fill="#020427" fill-rule="evenodd"/>
<path d="M 91 10 L 91 13 L 101 20 L 102 23 L 106 24 L 123 38 L 127 38 L 121 30 L 102 15 Z" fill="#020427" fill-rule="evenodd"/>
<path d="M 780 0 L 774 0 L 739 29 L 736 34 L 723 45 L 723 51 L 436 282 L 432 282 L 406 262 L 403 256 L 405 254 L 403 259 L 412 268 L 432 283 L 437 283 L 461 262 L 481 249 L 483 245 L 589 162 L 644 115 L 647 115 L 650 110 L 663 99 L 667 98 L 669 94 L 706 67 L 708 63 L 717 58 L 723 52 L 723 46 L 729 43 L 741 28 L 771 4 L 778 1 L 784 6 L 790 14 L 790 20 L 754 50 L 751 49 L 742 55 L 737 61 L 732 60 L 726 63 L 669 111 L 661 115 L 659 119 L 635 139 L 632 139 L 632 141 L 618 153 L 614 154 L 611 159 L 606 161 L 596 171 L 593 171 L 592 174 L 576 185 L 575 188 L 564 195 L 558 202 L 445 292 L 513 346 L 522 347 L 572 386 L 578 389 L 588 390 L 607 400 L 639 424 L 643 425 L 655 436 L 658 436 L 665 443 L 667 451 L 665 456 L 660 460 L 660 469 L 676 507 L 682 517 L 686 516 L 689 521 L 689 529 L 683 535 L 689 551 L 688 555 L 681 559 L 673 559 L 670 556 L 667 546 L 661 542 L 648 543 L 637 549 L 610 557 L 597 556 L 593 554 L 592 551 L 587 550 L 575 537 L 565 519 L 559 501 L 556 472 L 564 422 L 556 406 L 506 365 L 506 357 L 504 354 L 491 346 L 480 335 L 440 304 L 433 301 L 375 346 L 374 349 L 369 351 L 360 359 L 360 366 L 325 394 L 314 405 L 307 419 L 315 469 L 313 493 L 307 515 L 292 541 L 278 553 L 267 557 L 254 556 L 219 543 L 210 542 L 203 548 L 199 559 L 189 559 L 199 561 L 204 547 L 211 542 L 256 557 L 276 555 L 291 543 L 304 523 L 313 497 L 315 465 L 308 418 L 313 412 L 314 405 L 361 366 L 360 361 L 432 302 L 436 302 L 505 357 L 504 363 L 556 407 L 558 415 L 563 420 L 556 464 L 557 494 L 564 518 L 578 542 L 587 551 L 600 557 L 621 555 L 653 543 L 664 544 L 668 549 L 672 561 L 687 557 L 690 552 L 684 534 L 689 531 L 690 523 L 688 518 L 681 514 L 660 464 L 667 454 L 666 443 L 644 425 L 605 398 L 590 390 L 577 388 L 523 347 L 511 344 L 447 294 L 446 291 L 601 168 L 731 61 L 736 62 L 747 53 L 752 52 L 791 21 L 791 14 Z" fill="#020427" fill-rule="evenodd"/>
<path d="M 90 0 L 79 15 L 81 22 L 119 52 L 123 52 L 135 62 L 140 61 L 278 173 L 283 180 L 281 182 L 284 178 L 214 121 L 208 114 L 189 101 L 151 68 L 140 61 L 135 61 L 114 47 L 81 21 L 79 17 L 85 7 L 90 2 L 95 1 L 105 11 L 126 25 L 127 29 L 133 31 L 135 36 L 147 46 L 147 51 L 155 59 L 210 101 L 254 137 L 255 140 L 264 145 L 293 169 L 148 51 L 148 45 L 137 37 L 133 30 L 96 0 Z" fill="#020427" fill-rule="evenodd"/>
</svg>