<svg xmlns="http://www.w3.org/2000/svg" width="716" height="563" viewBox="0 0 716 563">
<path d="M 327 336 L 323 337 L 321 341 L 318 341 L 316 345 L 313 345 L 312 348 L 308 349 L 306 353 L 303 353 L 300 358 L 297 358 L 297 360 L 292 364 L 291 370 L 287 375 L 283 376 L 281 380 L 278 380 L 276 384 L 267 389 L 265 393 L 262 393 L 260 397 L 256 398 L 256 400 L 250 403 L 247 407 L 271 427 L 325 460 L 327 460 Z" fill="#033870" fill-rule="evenodd"/>
<path d="M 326 60 L 301 69 L 230 87 L 174 95 L 174 122 L 177 128 L 180 128 L 182 132 L 185 132 L 188 135 L 188 137 L 191 137 L 193 141 L 197 142 L 221 162 L 221 165 L 211 181 L 204 180 L 203 184 L 198 184 L 197 181 L 194 181 L 192 177 L 187 175 L 187 173 L 184 173 L 175 166 L 174 246 L 178 297 L 182 314 L 192 341 L 200 357 L 214 376 L 222 373 L 224 369 L 227 369 L 228 366 L 233 362 L 236 362 L 237 359 L 245 355 L 246 352 L 249 352 L 261 341 L 265 339 L 274 339 L 274 337 L 280 332 L 283 332 L 283 330 L 287 329 L 287 327 L 293 322 L 296 322 L 298 318 L 306 312 L 309 312 L 310 309 L 313 309 L 313 307 L 324 298 L 327 298 L 332 291 L 329 291 L 324 287 L 324 285 L 321 285 L 314 280 L 313 277 L 309 276 L 309 272 L 327 253 Z M 252 165 L 255 166 L 258 174 L 257 178 L 259 179 L 258 182 L 262 188 L 262 196 L 264 197 L 264 203 L 267 206 L 266 210 L 313 212 L 312 218 L 306 220 L 305 223 L 302 223 L 301 226 L 283 239 L 280 239 L 277 244 L 280 247 L 284 259 L 283 262 L 286 265 L 292 283 L 290 287 L 255 262 L 254 259 L 250 263 L 247 263 L 245 267 L 239 269 L 238 272 L 235 272 L 234 275 L 231 275 L 230 278 L 227 278 L 226 281 L 223 281 L 222 284 L 219 284 L 218 287 L 214 287 L 213 284 L 228 241 L 222 239 L 210 230 L 209 227 L 206 227 L 191 216 L 192 212 L 200 211 L 237 212 L 238 208 L 241 206 L 240 202 L 243 199 L 242 195 L 245 192 L 244 188 L 248 182 L 247 178 L 251 172 L 250 168 Z" fill="#033870" fill-rule="evenodd"/>
<path d="M 352 314 L 351 317 L 347 318 L 346 321 L 343 321 L 340 325 L 338 325 L 336 329 L 333 329 L 331 333 L 328 333 L 328 461 L 354 474 L 355 476 L 360 476 L 399 456 L 418 443 L 422 442 L 459 415 L 465 407 L 460 403 L 460 401 L 455 399 L 453 395 L 449 394 L 443 389 L 442 386 L 433 381 L 431 377 L 427 376 L 425 372 L 422 372 L 417 364 L 417 360 L 410 355 L 408 351 L 404 350 L 403 347 L 400 347 L 398 343 L 394 342 L 393 339 L 390 339 L 389 336 L 386 336 L 368 322 L 367 319 L 364 319 L 359 313 Z" fill="#cd2732" fill-rule="evenodd"/>
<path d="M 449 238 L 444 240 L 442 244 L 439 244 L 439 246 L 433 251 L 430 251 L 430 253 L 422 260 L 418 261 L 416 265 L 413 265 L 411 269 L 402 274 L 400 278 L 393 281 L 391 285 L 388 285 L 387 288 L 383 289 L 382 293 L 388 297 L 389 300 L 392 300 L 393 303 L 396 303 L 397 306 L 400 306 L 405 310 L 406 313 L 409 313 L 414 317 L 415 320 L 418 320 L 420 324 L 423 324 L 424 327 L 427 327 L 432 331 L 433 334 L 436 336 L 444 336 L 447 340 L 454 343 L 455 346 L 462 349 L 463 352 L 466 352 L 470 355 L 470 357 L 476 359 L 477 362 L 483 364 L 489 369 L 489 371 L 492 371 L 499 378 L 520 347 L 533 315 L 539 285 L 540 240 L 539 238 Z" fill="#cd2732" fill-rule="evenodd"/>
<path d="M 329 252 L 335 256 L 337 260 L 340 260 L 341 263 L 344 263 L 345 266 L 348 266 L 349 269 L 359 272 L 359 270 L 366 264 L 373 261 L 374 258 L 384 250 L 387 250 L 389 246 L 392 246 L 392 244 L 397 242 L 400 238 L 329 238 Z" fill="#cd2732" fill-rule="evenodd"/>
<path d="M 240 424 L 247 430 L 249 430 L 265 444 L 270 446 L 272 451 L 276 451 L 303 469 L 303 471 L 306 470 L 342 490 L 343 493 L 347 492 L 356 498 L 391 481 L 393 478 L 400 478 L 401 475 L 424 462 L 428 458 L 440 451 L 443 451 L 446 446 L 474 425 L 474 421 L 469 415 L 468 410 L 448 427 L 426 441 L 425 444 L 417 447 L 401 458 L 361 479 L 354 479 L 340 470 L 330 466 L 327 461 L 305 450 L 271 428 L 248 410 L 248 406 L 252 402 L 243 411 Z" fill="#02054a" fill-rule="evenodd"/>
<path d="M 556 154 L 549 156 L 547 161 L 543 164 L 543 212 L 541 213 L 543 215 L 543 230 L 541 231 L 543 234 L 543 271 L 540 297 L 528 337 L 509 370 L 503 376 L 503 379 L 508 379 L 518 383 L 528 370 L 529 366 L 532 364 L 535 357 L 538 356 L 539 349 L 549 327 L 555 300 L 558 297 L 556 294 L 558 281 L 560 280 L 558 279 L 558 181 L 560 180 L 560 177 L 558 176 L 558 156 Z" fill="#02054a" fill-rule="evenodd"/>
<path d="M 158 152 L 157 221 L 155 222 L 157 223 L 157 243 L 155 244 L 157 245 L 155 248 L 157 251 L 157 261 L 155 262 L 155 270 L 157 271 L 158 287 L 156 288 L 159 292 L 157 295 L 160 299 L 163 315 L 170 334 L 170 340 L 173 342 L 185 365 L 184 368 L 188 370 L 194 381 L 199 382 L 215 377 L 207 369 L 191 341 L 181 314 L 177 297 L 174 271 L 174 167 L 178 166 L 171 163 Z" fill="#02054a" fill-rule="evenodd"/>
<path d="M 156 79 L 156 109 L 162 113 L 166 119 L 170 119 L 176 126 L 173 122 L 174 94 L 230 86 L 277 75 L 324 60 L 328 56 L 355 45 L 360 45 L 368 48 L 369 51 L 373 50 L 383 54 L 384 57 L 388 56 L 396 59 L 398 62 L 405 62 L 407 65 L 411 64 L 425 68 L 430 72 L 434 71 L 437 74 L 443 73 L 458 78 L 480 82 L 483 85 L 490 84 L 529 90 L 533 93 L 534 91 L 541 92 L 543 95 L 542 120 L 540 121 L 540 124 L 559 107 L 559 79 L 490 69 L 455 61 L 453 58 L 446 59 L 421 51 L 419 48 L 415 49 L 408 47 L 407 44 L 400 44 L 394 39 L 390 40 L 359 26 L 341 34 L 337 33 L 336 36 L 332 35 L 331 38 L 319 43 L 272 58 L 220 70 L 212 69 L 208 72 L 201 71 L 198 74 L 169 78 L 166 76 L 163 79 Z" fill="#02054a" fill-rule="evenodd"/>
<path d="M 707 6 L 697 2 L 667 27 L 662 28 L 659 36 L 646 46 L 646 52 L 641 57 L 637 57 L 636 61 L 628 67 L 623 68 L 623 71 L 602 88 L 594 91 L 593 95 L 579 105 L 516 158 L 510 160 L 508 164 L 505 164 L 505 167 L 501 171 L 495 174 L 485 184 L 479 187 L 456 206 L 453 206 L 451 211 L 444 215 L 402 249 L 399 249 L 394 256 L 379 267 L 376 267 L 376 269 L 359 284 L 354 284 L 327 263 L 324 258 L 312 270 L 315 269 L 320 271 L 327 277 L 327 279 L 330 279 L 345 291 L 345 294 L 274 351 L 266 350 L 238 372 L 233 373 L 231 377 L 216 389 L 203 391 L 190 399 L 186 399 L 185 403 L 174 409 L 142 433 L 137 434 L 137 436 L 128 444 L 127 451 L 134 461 L 134 466 L 128 482 L 125 483 L 126 487 L 113 515 L 108 517 L 105 522 L 105 529 L 110 533 L 107 546 L 104 548 L 106 555 L 114 558 L 115 562 L 116 560 L 120 560 L 125 546 L 129 542 L 138 541 L 142 542 L 143 545 L 146 544 L 163 550 L 167 554 L 172 553 L 181 556 L 189 556 L 200 552 L 211 542 L 214 542 L 216 534 L 221 529 L 224 522 L 227 521 L 226 517 L 230 509 L 234 493 L 236 466 L 231 440 L 233 437 L 231 436 L 232 432 L 229 429 L 228 419 L 236 409 L 235 404 L 247 393 L 255 390 L 255 388 L 267 377 L 272 376 L 273 372 L 277 372 L 278 368 L 281 366 L 282 359 L 286 355 L 292 353 L 292 351 L 304 340 L 308 340 L 311 335 L 318 332 L 319 328 L 324 327 L 328 321 L 342 310 L 345 310 L 349 304 L 357 300 L 391 326 L 395 332 L 402 334 L 410 342 L 410 344 L 415 346 L 415 348 L 418 348 L 426 353 L 428 364 L 452 382 L 454 387 L 459 388 L 460 392 L 465 393 L 479 406 L 478 411 L 481 412 L 486 420 L 483 445 L 480 448 L 482 449 L 479 472 L 480 490 L 483 505 L 486 510 L 485 516 L 488 517 L 501 541 L 512 551 L 524 556 L 537 555 L 550 551 L 551 549 L 558 550 L 562 546 L 577 541 L 586 542 L 592 550 L 591 555 L 596 560 L 608 556 L 610 554 L 610 549 L 605 539 L 605 533 L 610 529 L 610 521 L 608 517 L 604 517 L 601 514 L 597 505 L 598 502 L 595 501 L 581 466 L 581 460 L 588 456 L 588 447 L 586 443 L 565 426 L 561 425 L 551 416 L 526 400 L 524 396 L 520 396 L 507 390 L 499 390 L 494 387 L 488 379 L 485 379 L 454 357 L 453 353 L 448 352 L 441 346 L 435 347 L 428 343 L 404 322 L 385 309 L 379 301 L 376 302 L 366 293 L 366 291 L 372 286 L 375 286 L 375 284 L 388 273 L 394 271 L 400 263 L 404 263 L 404 261 L 412 254 L 418 252 L 418 250 L 432 238 L 437 237 L 439 232 L 442 233 L 448 225 L 482 199 L 486 194 L 497 187 L 500 183 L 503 184 L 504 180 L 510 175 L 513 176 L 515 171 L 518 172 L 518 170 L 538 152 L 557 138 L 585 113 L 593 110 L 595 105 L 598 106 L 598 103 L 616 89 L 619 89 L 619 87 L 626 80 L 630 80 L 630 78 L 648 62 L 652 60 L 659 60 L 669 51 L 676 49 L 692 34 L 698 33 L 700 29 L 703 29 L 705 25 L 708 25 L 710 20 L 713 18 L 709 13 Z M 522 430 L 525 429 L 546 447 L 548 447 L 550 451 L 546 452 L 545 449 L 542 449 L 531 442 L 522 434 Z M 195 429 L 195 433 L 193 435 L 189 435 L 184 442 L 181 441 L 177 447 L 165 456 L 159 456 L 162 450 L 179 438 L 182 434 L 192 428 Z M 496 427 L 500 427 L 502 432 L 515 441 L 520 447 L 519 452 L 521 453 L 523 466 L 521 469 L 524 473 L 524 476 L 522 477 L 525 481 L 529 517 L 528 527 L 526 528 L 525 533 L 532 532 L 536 526 L 536 523 L 539 521 L 537 520 L 538 514 L 536 513 L 537 493 L 534 491 L 526 460 L 526 454 L 529 452 L 545 462 L 553 470 L 553 472 L 559 476 L 566 491 L 572 517 L 575 519 L 576 523 L 575 529 L 564 537 L 559 536 L 558 539 L 530 549 L 520 548 L 516 545 L 516 543 L 512 544 L 511 541 L 504 535 L 496 521 L 490 505 L 487 480 L 489 479 L 487 478 L 487 473 L 489 472 L 487 471 L 489 451 L 492 438 L 495 435 L 494 430 Z M 217 425 L 220 428 L 224 443 L 224 454 L 227 457 L 228 493 L 224 496 L 226 499 L 219 520 L 208 537 L 202 543 L 199 542 L 197 547 L 182 549 L 144 533 L 139 526 L 142 512 L 145 510 L 145 502 L 156 476 L 168 463 L 185 452 L 188 453 L 189 458 L 186 461 L 186 470 L 183 472 L 183 481 L 180 483 L 181 486 L 179 487 L 180 490 L 178 491 L 179 498 L 175 517 L 177 518 L 178 525 L 185 535 L 186 533 L 189 533 L 189 529 L 186 526 L 186 509 L 194 447 L 203 438 L 206 439 L 206 437 L 212 432 L 213 427 Z M 702 10 L 701 14 L 675 35 L 669 39 L 665 38 L 667 32 L 671 32 L 673 28 L 676 28 L 679 23 L 692 14 L 696 9 Z" fill="#02054a" fill-rule="evenodd"/>
<path d="M 8 7 L 2 19 L 29 39 L 37 47 L 37 49 L 41 48 L 57 60 L 62 60 L 66 63 L 66 65 L 73 67 L 94 86 L 101 90 L 108 97 L 108 99 L 111 99 L 152 133 L 152 135 L 155 134 L 168 146 L 168 148 L 171 148 L 178 154 L 178 156 L 181 156 L 186 160 L 189 165 L 192 165 L 205 176 L 205 179 L 210 181 L 218 168 L 214 169 L 205 163 L 192 151 L 192 149 L 187 148 L 160 126 L 155 119 L 151 119 L 135 106 L 134 102 L 126 99 L 103 80 L 100 75 L 97 75 L 95 71 L 92 71 L 77 60 L 68 51 L 68 46 L 56 36 L 55 32 L 50 28 L 50 26 L 47 26 L 39 21 L 17 2 L 14 2 Z M 12 11 L 17 10 L 18 12 L 24 14 L 38 25 L 41 30 L 47 32 L 49 37 L 44 38 L 41 36 L 38 31 L 34 31 L 18 19 Z" fill="#02054a" fill-rule="evenodd"/>
<path d="M 519 429 L 521 433 L 529 440 L 540 446 L 552 457 L 554 454 L 553 450 L 547 448 L 523 428 Z" fill="#030429" fill-rule="evenodd"/>
<path d="M 196 429 L 191 428 L 187 433 L 166 447 L 160 454 L 165 457 L 169 451 L 191 436 Z" fill="#030429" fill-rule="evenodd"/>
<path d="M 497 426 L 489 455 L 488 487 L 491 505 L 497 521 L 505 535 L 515 545 L 531 549 L 532 547 L 553 541 L 554 539 L 564 536 L 572 531 L 575 526 L 572 510 L 568 503 L 569 499 L 566 497 L 565 491 L 558 476 L 545 463 L 532 455 L 531 452 L 529 454 L 545 464 L 558 477 L 573 517 L 574 527 L 564 535 L 533 547 L 520 546 L 507 535 L 495 514 L 489 491 L 489 461 L 494 435 L 497 428 L 501 429 L 502 434 L 519 447 L 527 512 L 527 526 L 523 530 L 524 534 L 529 535 L 536 529 L 539 520 L 539 505 L 526 455 L 537 496 L 538 522 L 532 533 L 527 534 L 525 532 L 525 528 L 528 525 L 528 517 L 523 480 L 524 472 L 521 465 L 520 450 L 517 444 L 513 440 L 509 439 Z" fill="#030429" fill-rule="evenodd"/>
<path d="M 217 426 L 214 428 L 217 427 L 219 430 L 225 454 L 226 489 L 221 510 L 209 532 L 196 545 L 191 547 L 180 547 L 146 532 L 141 527 L 141 520 L 151 490 L 158 476 L 168 466 L 182 456 L 186 455 L 187 461 L 176 502 L 176 523 L 179 530 L 183 534 L 188 535 L 191 533 L 191 529 L 187 525 L 187 515 L 196 446 L 213 433 L 213 430 L 211 434 L 209 434 L 194 447 L 195 454 L 186 519 L 189 533 L 184 534 L 176 521 L 177 500 L 179 499 L 178 494 L 188 458 L 187 453 L 179 456 L 173 462 L 168 464 L 157 476 L 151 488 L 148 499 L 146 500 L 144 511 L 142 512 L 140 526 L 144 532 L 182 548 L 197 546 L 211 532 L 213 526 L 217 523 L 220 517 L 220 512 L 223 509 L 223 503 L 226 500 L 225 494 L 227 493 L 226 457 L 222 438 Z" fill="#030429" fill-rule="evenodd"/>
<path d="M 238 421 L 239 425 L 290 463 L 357 500 L 422 465 L 447 448 L 476 425 L 476 421 L 472 417 L 468 408 L 443 429 L 418 446 L 423 443 L 426 444 L 426 440 L 437 434 L 467 411 L 470 412 L 470 415 L 474 420 L 474 425 L 468 431 L 416 468 L 400 475 L 398 478 L 393 479 L 391 482 L 378 489 L 375 489 L 374 491 L 356 499 L 296 466 L 247 431 L 240 424 L 240 419 L 245 408 L 249 404 L 244 409 L 243 414 Z" fill="#030429" fill-rule="evenodd"/>
<path d="M 559 148 L 541 163 L 542 235 L 541 278 L 538 299 L 542 273 L 542 164 L 553 154 L 557 154 L 559 159 L 559 283 L 557 299 L 546 338 L 533 364 L 530 366 L 523 379 L 519 383 L 512 382 L 505 379 L 505 374 L 520 351 L 527 335 L 520 350 L 500 379 L 510 381 L 518 385 L 531 368 L 543 346 L 553 319 L 557 302 L 560 279 Z" fill="#030429" fill-rule="evenodd"/>
<path d="M 156 148 L 156 287 L 162 317 L 174 349 L 189 376 L 196 385 L 207 380 L 213 380 L 221 373 L 214 379 L 196 383 L 188 373 L 177 354 L 164 322 L 156 283 L 157 155 L 162 154 L 175 164 Z" fill="#030429" fill-rule="evenodd"/>
<path d="M 155 78 L 155 110 L 181 131 L 170 120 L 155 109 L 156 78 L 220 69 L 291 52 L 313 43 L 316 44 L 321 40 L 341 33 L 357 25 L 380 34 L 383 37 L 387 37 L 390 40 L 395 40 L 407 46 L 412 46 L 419 50 L 446 58 L 490 68 L 533 74 L 535 76 L 542 75 L 557 77 L 560 81 L 560 94 L 558 95 L 560 96 L 559 109 L 544 122 L 542 122 L 541 93 L 534 91 L 531 92 L 530 90 L 522 91 L 476 83 L 475 81 L 471 82 L 454 78 L 450 75 L 435 73 L 397 61 L 396 59 L 391 59 L 375 53 L 372 49 L 366 49 L 357 45 L 328 57 L 327 229 L 327 59 L 329 57 L 359 46 L 404 64 L 448 77 L 494 87 L 540 93 L 540 126 L 560 109 L 560 77 L 499 69 L 453 59 L 407 45 L 358 24 L 322 40 L 273 56 L 212 70 Z" fill="#030429" fill-rule="evenodd"/>
<path d="M 701 9 L 695 10 L 692 15 L 667 33 L 665 38 L 667 39 L 697 17 L 702 12 Z" fill="#030429" fill-rule="evenodd"/>
<path d="M 13 10 L 13 13 L 18 17 L 18 19 L 21 19 L 24 23 L 29 25 L 45 38 L 49 38 L 47 33 L 18 10 Z" fill="#030429" fill-rule="evenodd"/>
<path d="M 702 0 L 696 0 L 661 29 L 658 34 L 645 45 L 645 51 L 358 282 L 354 282 L 325 259 L 325 256 L 327 254 L 325 256 L 326 261 L 335 269 L 340 271 L 354 283 L 359 283 L 383 262 L 387 261 L 392 255 L 403 249 L 405 245 L 420 235 L 444 214 L 453 209 L 454 206 L 485 183 L 499 170 L 501 170 L 505 165 L 516 158 L 521 152 L 544 135 L 566 115 L 569 115 L 572 110 L 589 98 L 590 95 L 628 67 L 630 63 L 639 58 L 645 52 L 645 46 L 651 43 L 651 41 L 658 36 L 659 32 L 696 2 L 701 2 L 706 6 L 712 15 L 712 19 L 707 25 L 694 35 L 690 36 L 690 38 L 679 47 L 664 55 L 659 61 L 653 60 L 648 63 L 634 76 L 618 87 L 598 105 L 596 105 L 591 111 L 583 115 L 581 119 L 579 119 L 565 132 L 560 134 L 557 139 L 554 139 L 554 141 L 540 153 L 536 154 L 533 159 L 530 159 L 518 171 L 515 171 L 514 174 L 498 185 L 497 188 L 486 195 L 461 217 L 417 250 L 413 255 L 367 291 L 367 293 L 376 301 L 404 321 L 428 342 L 435 346 L 444 347 L 499 389 L 510 390 L 511 392 L 515 392 L 529 400 L 561 424 L 565 425 L 587 443 L 589 450 L 587 451 L 587 456 L 582 460 L 582 469 L 596 499 L 598 507 L 600 508 L 604 517 L 611 521 L 610 529 L 605 535 L 611 553 L 606 558 L 595 559 L 592 556 L 589 546 L 583 542 L 570 543 L 567 546 L 564 545 L 559 549 L 551 550 L 550 552 L 545 552 L 544 554 L 524 557 L 517 555 L 514 551 L 509 550 L 500 541 L 500 538 L 497 537 L 490 521 L 487 519 L 479 490 L 479 460 L 486 422 L 483 415 L 479 411 L 478 406 L 452 383 L 428 365 L 428 357 L 426 354 L 421 352 L 397 331 L 357 301 L 345 308 L 307 340 L 297 346 L 296 349 L 291 351 L 282 359 L 282 366 L 278 368 L 277 371 L 236 404 L 235 410 L 232 412 L 229 419 L 236 459 L 234 498 L 231 501 L 232 506 L 222 529 L 215 537 L 214 541 L 200 553 L 193 554 L 189 557 L 176 556 L 138 542 L 129 543 L 122 553 L 121 559 L 111 559 L 107 557 L 104 550 L 110 535 L 104 529 L 104 522 L 106 518 L 112 515 L 119 498 L 123 493 L 123 489 L 133 466 L 133 459 L 129 457 L 126 451 L 126 448 L 128 447 L 127 444 L 134 437 L 174 408 L 181 405 L 187 399 L 199 392 L 203 392 L 207 389 L 214 389 L 221 385 L 230 376 L 266 349 L 274 350 L 341 297 L 345 292 L 317 270 L 343 291 L 341 296 L 274 349 L 265 349 L 215 388 L 202 390 L 189 397 L 145 428 L 127 443 L 126 453 L 133 464 L 112 514 L 108 515 L 104 520 L 103 529 L 109 534 L 103 551 L 103 555 L 115 560 L 116 562 L 121 562 L 126 547 L 134 542 L 178 557 L 192 557 L 207 549 L 217 538 L 225 525 L 235 497 L 237 465 L 230 418 L 235 412 L 236 405 L 283 366 L 282 361 L 350 305 L 354 302 L 358 302 L 427 357 L 426 363 L 478 407 L 480 415 L 485 420 L 478 464 L 479 494 L 486 518 L 500 542 L 509 551 L 522 557 L 535 557 L 575 543 L 586 544 L 590 549 L 594 562 L 599 562 L 600 560 L 609 557 L 612 552 L 606 534 L 611 531 L 612 523 L 610 518 L 603 514 L 582 464 L 589 454 L 588 443 L 566 425 L 527 398 L 512 390 L 499 388 L 442 345 L 436 346 L 369 294 L 368 291 L 523 168 L 653 61 L 658 62 L 669 53 L 674 52 L 713 21 L 715 16 Z" fill="#030429" fill-rule="evenodd"/>
<path d="M 0 15 L 0 20 L 41 52 L 45 52 L 57 62 L 62 61 L 200 173 L 205 178 L 203 182 L 206 178 L 158 139 L 155 134 L 152 134 L 130 114 L 125 112 L 77 73 L 73 68 L 61 60 L 54 59 L 45 51 L 36 47 L 3 21 L 1 17 L 8 9 L 8 6 L 14 1 L 17 1 L 27 11 L 31 12 L 39 20 L 48 25 L 49 29 L 55 31 L 57 36 L 69 46 L 69 51 L 77 59 L 79 59 L 104 81 L 109 83 L 171 133 L 171 136 L 176 137 L 177 140 L 186 145 L 215 169 L 124 94 L 70 51 L 70 45 L 59 37 L 55 30 L 22 5 L 18 0 L 12 0 Z" fill="#030429" fill-rule="evenodd"/>
<path d="M 448 237 L 379 292 L 438 337 L 447 339 L 499 379 L 501 377 L 496 376 L 444 337 L 438 337 L 383 295 L 382 291 L 449 237 L 540 237 Z" fill="#84111f" fill-rule="evenodd"/>
</svg>